<svg xmlns="http://www.w3.org/2000/svg" width="63.072" height="63.065" viewBox="0 0 63.072 63.065">
    <defs>
        <style>
            .cls-1{fill:#662f92}
        </style>
    </defs>
    <path id="add-group" d="M36.523 41.842a23.39 23.39 0 0 0-4.914-2.623 12.539 12.539 0 0 0 4.079-8.272A18.543 18.543 0 0 1 59.2 29.024a2.463 2.463 0 1 0 2.819-4.041 23.416 23.416 0 0 0-4.915-2.623 12.564 12.564 0 1 0-16.915-.028q-.516.2-1.025.422a23.4 23.4 0 0 0-4.339 2.493 12.562 12.562 0 1 0-20.153 13.924A23.692 23.692 0 0 0 .365 53.911 7.391 7.391 0 0 0 7.4 63.565h21.433a2.464 2.464 0 0 0 0-4.927H7.4a2.465 2.465 0 0 1-2.346-3.219 19.007 19.007 0 0 1 18.059-12.857 18.427 18.427 0 0 1 10.592 3.321 2.463 2.463 0 1 0 2.818-4.041zm12.14-36.414a7.637 7.637 0 1 1-7.637 7.637 7.645 7.645 0 0 1 7.637-7.637zm-25.5 16.859a7.637 7.637 0 1 1-7.637 7.637 7.646 7.646 0 0 1 7.637-7.637zm39.912 29.577a2.463 2.463 0 0 1-2.464 2.463h-6.774V61.1a2.464 2.464 0 1 1-4.927 0v-6.773h-6.775a2.464 2.464 0 0 1 0-4.927h6.775v-6.774a2.464 2.464 0 0 1 4.927 0V49.4h6.774a2.464 2.464 0 0 1 2.464 2.464zm0 0" class="cls-1" transform="translate(-.003 -.501)"/>
</svg>
