<svg xmlns="http://www.w3.org/2000/svg" id="XMLID_124_" width="227.314" height="41.681" viewBox="0 0 227.314 41.681">
    <defs>
        <style>
            .cls-1{fill:#6e2691}.cls-2{fill:#ff4500}
        </style>
    </defs>
    <g id="XMLID_307_" transform="translate(0 15.283)">
        <path id="XMLID_580_" d="M111.7 158.568v2.47a7.945 7.945 0 0 1-2.026 5.654 6.9 6.9 0 0 1-5.114 2.026h-3.36v7.564H94V151.1h10.189a7.589 7.589 0 0 1 5.4 2.045 7.446 7.446 0 0 1 2.111 5.423zm-7.217 1.756v-.984a3.551 3.551 0 0 0-.54-1.949 1.8 1.8 0 0 0-1.505-.868h-1.216v6.754h1.235a1.792 1.792 0 0 0 1.428-.811 3.578 3.578 0 0 0 .593-2.142z" class="cls-1" transform="translate(-94 -150.483)"/>
        <path id="XMLID_577_" d="M192.7 164.364v-6.31a11.053 11.053 0 0 1 2.181-7.275C196.386 149 198.7 148 201.943 148c3.261 0 5.6 1 7.12 2.779 1.505 1.775 2.18 4.264 2.18 7.255v6.271c0 2.991-.675 5.519-2.18 7.275-1.524 1.775-3.84 2.779-7.1 2.779s-5.577-1.023-7.082-2.779a10.889 10.889 0 0 1-2.181-7.217zm9.282 4.554c1.331 0 2.045-.984 2.045-3.2v-9.05a4.447 4.447 0 0 0-.521-2.3 1.713 1.713 0 0 0-1.506-.888 1.665 1.665 0 0 0-1.486.868 4.474 4.474 0 0 0-.521 2.316v9.069c-.037 2.2.677 3.185 1.989 3.185z" class="cls-1" transform="translate(-173.654 -147.981)"/>
        <path id="XMLID_573_" d="M313.926 151.1h7.352l-3.223 25.221h-9.764l-.618-10.111-.135-1.93-.135 1.93-.618 10.111h-9.764L293.8 151.1h7.371l.888 15.341.251 3.879h.154l.174-3.9 1.389-15.322h7.024l1.37 15.379.174 3.84h.154l.27-3.9z" class="cls-1" transform="translate(-255.245 -150.482)"/>
        <path id="XMLID_570_" d="M460.869 176.3H445.2v-25.2h15.669v5.461h-8.452v4.322h6.638v5.461H452.4v4.535h8.452v5.421z" class="cls-1" transform="translate(-377.43 -150.483)"/>
        <path id="XMLID_564_" d="M547.119 167.888h-.519v8.412h-7.2v-25.2h9.706a8.1 8.1 0 0 1 6.1 2.219 7.644 7.644 0 0 1 1.91 5.384v1.563a6.2 6.2 0 0 1-.791 3.28 5.108 5.108 0 0 1-2.161 1.872v.1a3.39 3.39 0 0 1 1.582 1.756 11.805 11.805 0 0 1 .6 2.895l.212 2.065a12.078 12.078 0 0 0 .521 2.373 8.576 8.576 0 0 0 .695 1.7h-7.448a2.756 2.756 0 0 1-.135-.405c-.154-.463-.367-1.2-.56-2.026-.116-.405-.193-.81-.27-1.2l-.328-2.238c-.255-1.759-.969-2.589-1.914-2.55zm2.759-8.027v-.6a3.517 3.517 0 0 0-.5-1.949 1.778 1.778 0 0 0-1.544-.772H546.6v5.9h1.235a1.818 1.818 0 0 0 1.544-.733 3.048 3.048 0 0 0 .5-1.853z" class="cls-1" transform="translate(-453.453 -150.483)"/>
        <path id="XMLID_562_" d="M657.172 166.521c.019 2.759-.83 4.708-2.335 5.963a9.63 9.63 0 0 1-6.272 1.814 8.577 8.577 0 0 1-9.166-8.934h6.966c.039.367.058.753.077 1.158a2.444 2.444 0 0 0 .849 1.968 2.028 2.028 0 0 0 1.293.347 1.119 1.119 0 0 0 1.1-.579 3.249 3.249 0 0 0 .212-1.37 3.329 3.329 0 0 0-.212-1.409 2.466 2.466 0 0 0-1.293-1.119l-4.052-1.7a7.933 7.933 0 0 1-3.84-2.972 7.681 7.681 0 0 1-1.023-4.226 7.243 7.243 0 0 1 1.969-5.462c1.37-1.331 3.531-2.1 6.638-2.1 3.261 0 5.5.984 6.889 2.624a9.185 9.185 0 0 1 1.872 6.31h-6.986a7.031 7.031 0 0 0-.347-2.489 1.394 1.394 0 0 0-1.332-.984 1.286 1.286 0 0 0-1.235.637 2.922 2.922 0 0 0-.27 1.409 2.268 2.268 0 0 0 1.312 2.277l3.859 1.66a9.53 9.53 0 0 1 3.975 2.721 6.9 6.9 0 0 1 1.352 4.456z" class="cls-1" transform="translate(-534.156 -147.9)"/>
        <path id="XMLID_560_" d="M748.656 176.3H741.4v-25.2h7.255v9.764h3.8V151.1h7.217v25.221h-7.217v-10h-3.8z" class="cls-1" transform="translate(-616.474 -150.483)"/>
        <path id="XMLID_541_" d="M851.675 176.221H844.4L849.591 151h9.417l5.229 25.221h-7.294l-.6-4.3h-4.072zM854.3 157.1l-1.293 9.34h2.586z" class="cls-1" transform="translate(-699.598 -150.402)"/>
        <path id="XMLID_478_" d="M962.919 167.888h-.519v8.412h-7.2v-25.2h9.706a8.1 8.1 0 0 1 6.1 2.219 7.644 7.644 0 0 1 1.91 5.384v1.563a6.194 6.194 0 0 1-.791 3.28 5.105 5.105 0 0 1-2.161 1.872v.1a3.389 3.389 0 0 1 1.582 1.756 11.8 11.8 0 0 1 .6 2.895l.212 2.065a12.14 12.14 0 0 0 .521 2.373 8.58 8.58 0 0 0 .695 1.7h-7.429a2.676 2.676 0 0 1-.135-.405 24.18 24.18 0 0 1-.559-2.026c-.116-.405-.193-.81-.27-1.2l-.328-2.238c-.275-1.759-.989-2.589-1.934-2.55zm2.779-8.027v-.6a3.519 3.519 0 0 0-.5-1.949 1.778 1.778 0 0 0-1.544-.772h-1.235v5.9h1.235a1.819 1.819 0 0 0 1.544-.733 3.339 3.339 0 0 0 .5-1.853z" class="cls-1" transform="translate(-789.018 -150.483)"/>
        <path id="XMLID_450_" d="M1077.269 176.3H1061.6v-25.2h15.669v5.461h-8.452v4.322h6.658v5.461h-6.658v4.535h8.452z" class="cls-1" transform="translate(-874.886 -150.483)"/>
    </g>
    <g id="XMLID_224_" transform="translate(206.3)">
        <g id="XMLID_225_">
            <g id="XMLID_228_">
                <path id="XMLID_296_" d="M1184.114 87.167c0-7.12-6.5-10.671-5.017-18.467-6.233 0-7.564 5.249-6.831 7.912a4.567 4.567 0 0 1-1.023-4.458c-5.712 3.068-8.143 10.034-8.143 15.032a10.725 10.725 0 0 0 6.349 9.648l-3.667 12.987h5.924l1.891-6.657 1.91 6.657h5.924l-3.667-12.987a10.655 10.655 0 0 0 6.35-9.667zm-10.5 5.017a5.017 5.017 0 1 1 5.017-5.017 5.007 5.007 0 0 1-5.014 5.017z" class="cls-2" transform="translate(-1163.1 -68.7)"/>
                <circle id="XMLID_232_" cx="3.917" cy="3.917" r="3.917" class="cls-2" transform="translate(6.599 15.9)"/>
            </g>
        </g>
    </g>
</svg>
